<mxfile host="app.diagrams.net" modified="2023-06-27T09:13:48.586Z" agent="Mozilla/5.0 (Windows NT 10.0; Win64; x64) AppleWebKit/537.36 (KHTML, like Gecko) Chrome/114.0.0.0 Safari/537.36" etag="xRp102OBFwHVWeipZAWS" version="21.5.0" type="github">
  <diagram name="第 1 页" id="tJg1SgU2xVapSyH2EtI7">
    <mxGraphModel dx="1434" dy="764" grid="1" gridSize="10" guides="1" tooltips="1" connect="1" arrows="1" fold="1" page="1" pageScale="1" pageWidth="827" pageHeight="1169" math="0" shadow="0">
      <root>
        <mxCell id="0" />
        <mxCell id="1" parent="0" />
        <mxCell id="uNYkjxdiS4ng9zgV3syQ-1" value="&lt;font style=&quot;font-size: 14px;&quot;&gt;年课退费流程&lt;/font&gt;" style="rounded=0;whiteSpace=wrap;html=1;" vertex="1" parent="1">
          <mxGeometry y="320" width="160" height="40" as="geometry" />
        </mxCell>
        <mxCell id="uNYkjxdiS4ng9zgV3syQ-2" value="&lt;font style=&quot;font-size: 14px;&quot;&gt;内部退费&lt;/font&gt;" style="rounded=0;whiteSpace=wrap;html=1;" vertex="1" parent="1">
          <mxGeometry x="180" y="270" width="160" height="40" as="geometry" />
        </mxCell>
        <mxCell id="uNYkjxdiS4ng9zgV3syQ-3" value="&lt;font style=&quot;font-size: 14px;&quot;&gt;第三方退费&lt;/font&gt;" style="rounded=0;whiteSpace=wrap;html=1;" vertex="1" parent="1">
          <mxGeometry x="180" y="350" width="160" height="40" as="geometry" />
        </mxCell>
        <mxCell id="uNYkjxdiS4ng9zgV3syQ-4" value="查询订单调课状态&lt;br&gt;调课、转班、复课 3种申请态，不能退费" style="rhombus;whiteSpace=wrap;html=1;" vertex="1" parent="1">
          <mxGeometry x="650" y="300" width="220" height="80" as="geometry" />
        </mxCell>
        <mxCell id="uNYkjxdiS4ng9zgV3syQ-5" value="查询订单是否有待开发票&lt;br&gt;有则不允许申请" style="rhombus;whiteSpace=wrap;html=1;" vertex="1" parent="1">
          <mxGeometry x="370" y="290" width="220" height="80" as="geometry" />
        </mxCell>
        <mxCell id="uNYkjxdiS4ng9zgV3syQ-6" value="&lt;font style=&quot;font-size: 14px;&quot;&gt;年课可退费订单列表页&lt;/font&gt;" style="rounded=0;whiteSpace=wrap;html=1;" vertex="1" parent="1">
          <mxGeometry x="40" y="600" width="210" height="40" as="geometry" />
        </mxCell>
        <mxCell id="uNYkjxdiS4ng9zgV3syQ-7" value="&lt;font style=&quot;font-size: 14px;&quot;&gt;年课退费流程&lt;/font&gt;" style="rounded=0;whiteSpace=wrap;html=1;" vertex="1" parent="1">
          <mxGeometry x="540" y="600" width="210" height="40" as="geometry" />
        </mxCell>
      </root>
    </mxGraphModel>
  </diagram>
</mxfile>
